<svg viewBox="0 0 600 400" xmlns="http://www.w3.org/2000/svg">
<g transform="translate(72, 364)">
<g>
<g/>
</g>
<g>
<g>
<circle cx="444.3979797363281" cy="-56.13164186477661" fill="#231711" r="5"/>
<circle cx="472.47601318359375" cy="-176.2257480621338" fill="#231711" r="5"/>
<circle cx="460.2951965332031" cy="-19.064146518707275" fill="#231711" r="5"/>
<circle cx="435.48390197753906" cy="-87.09375858306885" fill="#231711" r="5"/>
<circle cx="440.4103546142578" cy="-42.66884469985962" fill="#231711" r="5"/>
<circle cx="251.4586944580078" cy="-70.59315919876099" fill="#231711" r="5"/>
<circle cx="443.14219665527344" cy="-28.0836181640625" fill="#231711" r="5"/>
<circle cx="467.7286834716797" cy="-49.20327806472778" fill="#231711" r="5"/>
<circle cx="443.5273132324219" cy="-44.11674737930298" fill="#231711" r="5"/>
<circle cx="223.60079956054688" cy="-175.74772357940674" fill="#231711" r="5"/>
<circle cx="435.9968719482422" cy="-57.66373586654663" fill="#231711" r="5"/>
<circle cx="368.83946228027344" cy="-154.22238731384277" fill="#231711" r="5"/>
<circle cx="400.4376525878906" cy="-8.959120750427246" fill="#231711" r="5"/>
<circle cx="221.60723876953125" cy="-93.8728380203247" fill="#231711" r="5"/>
<circle cx="407.3295593261719" cy="-19.84348773956299" fill="#231711" r="5"/>
<circle cx="314.5191192626953" cy="-7.032966613769531" fill="#231711" r="5"/>
<circle cx="445.0052947998047" cy="-67.58195352554321" fill="#231711" r="5"/>
<circle cx="439.9034729003906" cy="-57.28342390060425" fill="#231711" r="5"/>
<circle cx="214.08718872070313" cy="-257.04539680480957" fill="#231711" r="5"/>
<circle cx="434.13739013671875" cy="-5.173826694488525" fill="#231711" r="5"/>
<circle cx="444.19482421875" cy="-51.14900064468384" fill="#231711" r="5"/>
<circle cx="478.03285217285156" cy="-24.352230548858643" fill="#231711" r="5"/>
<circle cx="401.9729919433594" cy="-1.0300993919372559" fill="#231711" r="5"/>
<circle cx="449.6876678466797" cy="-28.646368980407715" fill="#231711" r="5"/>
<circle cx="250.93968200683594" cy="-280.1225414276123" fill="#231711" r="5"/>
<circle cx="437.78526306152344" cy="-33.0632438659668" fill="#231711" r="5"/>
<circle cx="267.76599884033203" cy="-227.49855518341064" fill="#231711" r="5"/>
<circle cx="394.9785461425781" cy="-61.69609975814819" fill="#231711" r="5"/>
<circle cx="448.080322265625" cy="-9.140708446502686" fill="#231711" r="5"/>
<circle cx="213.391845703125" cy="-279.51133155822754" fill="#231711" r="5"/>
<circle cx="416.3594970703125" cy="-31.318961143493652" fill="#231711" r="5"/>
<circle cx="215.68450927734375" cy="-27.747509479522705" fill="#231711" r="5"/>
<circle cx="472.9545135498047" cy="-48.5806303024292" fill="#231711" r="5"/>
<circle cx="457.7996063232422" cy="-139.74486827850342" fill="#231711" r="5"/>
<circle cx="452.1902618408203" cy="-0.8972058296203613" fill="#231711" r="5"/>
<circle cx="460.5021057128906" cy="-25.618521213531494" fill="#231711" r="5"/>
<circle cx="408.7254638671875" cy="-37.62092399597168" fill="#231711" r="5"/>
<circle cx="344.556884765625" cy="-144.4195213317871" fill="#231711" r="5"/>
<circle cx="388.7845458984375" cy="-10.275305271148682" fill="#231711" r="5"/>
<circle cx="312.2494125366211" cy="-97.75754690170288" fill="#231711" r="5"/>
<circle cx="456.8865509033203" cy="-11.306045055389404" fill="#231711" r="5"/>
<circle cx="466.5907287597656" cy="-36.28126382827759" fill="#231711" r="5"/>
<circle cx="465.40264892578125" cy="-35.8290901184082" fill="#231711" r="5"/>
<circle cx="398.4480285644531" cy="-28.480539798736572" fill="#231711" r="5"/>
<circle cx="347.69480895996094" cy="-30.112016201019287" fill="#231711" r="5"/>
<circle cx="449.9139404296875" cy="-64.56368732452393" fill="#231711" r="5"/>
<circle cx="470.9154968261719" cy="-45.17110061645508" fill="#231711" r="5"/>
<circle cx="422.0133361816406" cy="-37.263471603393555" fill="#231711" r="5"/>
<circle cx="313.78651428222656" cy="-183.33839893341064" fill="#231711" r="5"/>
<circle cx="440.08447265625" cy="-59.02758502960205" fill="#231711" r="5"/>
<circle cx="405.1036834716797" cy="-23.887492179870605" fill="#231711" r="5"/>
<circle cx="414.2710876464844" cy="-30.460259914398193" fill="#231711" r="5"/>
<circle cx="332.29248046875" cy="-51.71042203903198" fill="#231711" r="5"/>
<circle cx="433.37384033203125" cy="-62.50144577026367" fill="#231711" r="5"/>
<circle cx="435.7957763671875" cy="-30.526001453399658" fill="#231711" r="5"/>
<circle cx="452.961181640625" cy="-16.712682723999023" fill="#231711" r="5"/>
<circle cx="392.5216369628906" cy="-13.56037187576294" fill="#231711" r="5"/>
<circle cx="451.31703186035156" cy="-21.165249347686768" fill="#231711" r="5"/>
<circle cx="197.9410858154297" cy="-173.6685562133789" fill="#231711" r="5"/>
<circle cx="413.6765899658203" cy="-64.5122127532959" fill="#231711" r="5"/>
<circle cx="453.7818603515625" cy="-66.07169771194458" fill="#231711" r="5"/>
<circle cx="438.00489807128906" cy="-45.44546413421631" fill="#231711" r="5"/>
<circle cx="429.42791748046875" cy="-32.09985065460205" fill="#231711" r="5"/>
<circle cx="257.61561584472656" cy="-193.12164783477783" fill="#231711" r="5"/>
<circle cx="464.5723114013672" cy="-36.516239166259766" fill="#231711" r="5"/>
<circle cx="356.26300048828125" cy="-159.45768356323242" fill="#231711" r="5"/>
<circle cx="468.3285827636719" cy="-47.986751556396484" fill="#231711" r="5"/>
<circle cx="450.2354278564453" cy="-59.52041149139404" fill="#231711" r="5"/>
<circle cx="318.10020446777344" cy="-125.34122943878174" fill="#231711" r="5"/>
<circle cx="478.3318176269531" cy="-59.63503360748291" fill="#231711" r="5"/>
<circle cx="346.9369812011719" cy="-141.79420471191406" fill="#231711" r="5"/>
<circle cx="466.22694396972656" cy="-53.12170076370239" fill="#231711" r="5"/>
<circle cx="474.8478240966797" cy="-151.21161937713623" fill="#231711" r="5"/>
<circle cx="452.945068359375" cy="-42.649333000183105" fill="#231711" r="5"/>
<circle cx="457.9947967529297" cy="-17.681328773498535" fill="#231711" r="5"/>
<circle cx="409.6901092529297" cy="-38.77721309661865" fill="#231711" r="5"/>
<circle cx="421.9618377685547" cy="-9.646050930023193" fill="#231711" r="5"/>
</g>
</g>
<g>
<g>
<circle cx="90.2043228149414" cy="-67.66198635101318" fill="#802971" r="5"/>
<circle cx="54.89986038208008" cy="-20.586853504180908" fill="#802971" r="5"/>
<circle cx="45.0776252746582" cy="-4.617544651031494" fill="#802971" r="5"/>
<circle cx="7.6461639404296875" cy="-63.75642013549805" fill="#802971" r="5"/>
<circle cx="94.15071487426758" cy="-0.6285409927368164" fill="#802971" r="5"/>
<circle cx="4.291706085205078" cy="-145.34586906433105" fill="#802971" r="5"/>
<circle cx="63.80976104736328" cy="-45.07683324813843" fill="#802971" r="5"/>
<circle cx="68.2979850769043" cy="-66.3142442703247" fill="#802971" r="5"/>
<circle cx="80.7007942199707" cy="-28.39000940322876" fill="#802971" r="5"/>
<circle cx="2.143604278564453" cy="-33.766767501831055" fill="#802971" r="5"/>
<circle cx="69.9913558959961" cy="-49.33899259567261" fill="#802971" r="5"/>
<circle cx="57.26289367675781" cy="-49.63611841201782" fill="#802971" r="5"/>
<circle cx="65.20061874389648" cy="-14.55482816696167" fill="#802971" r="5"/>
<circle cx="133.76083374023438" cy="-186.86190223693848" fill="#802971" r="5"/>
<circle cx="37.65129089355469" cy="-39.22461223602295" fill="#802971" r="5"/>
<circle cx="40.447540283203125" cy="-12.757465839385986" fill="#802971" r="5"/>
<circle cx="70.26405715942383" cy="-39.17083549499512" fill="#802971" r="5"/>
<circle cx="2.0321044921875" cy="-12.054152965545654" fill="#802971" r="5"/>
<circle cx="34.593177795410156" cy="-36.78004837036133" fill="#802971" r="5"/>
<circle cx="2.3264923095703125" cy="-31.31529712677002" fill="#802971" r="5"/>
<circle cx="2.5431060791015625" cy="-2.2940797805786133" fill="#802971" r="5"/>
<circle cx="46.108280181884766" cy="-18.43768072128296" fill="#802971" r="5"/>
<circle cx="29.365516662597656" cy="-30.148024082183838" fill="#802971" r="5"/>
<circle cx="6.491374969482422" cy="-59.85483407974243" fill="#802971" r="5"/>
<circle cx="76.70282363891602" cy="-79.31574821472168" fill="#802971" r="5"/>
<circle cx="74.02500915527344" cy="-60.60742473602295" fill="#802971" r="5"/>
<circle cx="64.23830795288086" cy="-30.24284267425537" fill="#802971" r="5"/>
<circle cx="60.77560043334961" cy="-20.34789800643921" fill="#802971" r="5"/>
<circle cx="13.305656433105469" cy="-29.44730520248413" fill="#802971" r="5"/>
<circle cx="44.33023452758789" cy="-32.45409297943115" fill="#802971" r="5"/>
<circle cx="13.379768371582031" cy="-45.28298282623291" fill="#802971" r="5"/>
<circle cx="23.062213897705078" cy="-35.78094720840454" fill="#802971" r="5"/>
<circle cx="80.56758499145508" cy="-66.93648672103882" fill="#802971" r="5"/>
<circle cx="62.55626678466797" cy="-53.004703521728516" fill="#802971" r="5"/>
<circle cx="94.76871871948242" cy="-54.55003499984741" fill="#802971" r="5"/>
<circle cx="16.29598617553711" cy="-55.8013858795166" fill="#802971" r="5"/>
<circle cx="42.984500885009766" cy="-1.3633465766906738" fill="#802971" r="5"/>
<circle cx="67.89208602905273" cy="-53.14118003845215" fill="#802971" r="5"/>
<circle cx="60.443355560302734" cy="-9.40151834487915" fill="#802971" r="5"/>
<circle cx="35.068016052246094" cy="-209.61037158966064" fill="#802971" r="5"/>
<circle cx="0.89410400390625" cy="-25.356560230255127" fill="#802971" r="5"/>
<circle cx="78.00595092773438" cy="-52.99590015411377" fill="#802971" r="5"/>
<circle cx="168.9836883544922" cy="-194.01344680786133" fill="#802971" r="5"/>
<circle cx="16.53900146484375" cy="-60.62739849090576" fill="#802971" r="5"/>
<circle cx="12.979602813720703" cy="-175.35549545288086" fill="#802971" r="5"/>
<circle cx="71.28276443481445" cy="-10.728208541870117" fill="#802971" r="5"/>
<circle cx="71.87444686889648" cy="-21.324820518493652" fill="#802971" r="5"/>
<circle cx="88.48116302490234" cy="-39.92700910568237" fill="#802971" r="5"/>
<circle cx="82.54003143310547" cy="-49.0750617980957" fill="#802971" r="5"/>
<circle cx="91.68466186523438" cy="-21.59372043609619" fill="#802971" r="5"/>
<circle cx="26.196533203125" cy="-45.685505867004395" fill="#802971" r="5"/>
<circle cx="25.431724548339844" cy="-32.75343990325928" fill="#802971" r="5"/>
<circle cx="79.02127075195313" cy="-9.685503959655762" fill="#802971" r="5"/>
<circle cx="94.29591751098633" cy="-25.303715705871582" fill="#802971" r="5"/>
<circle cx="42.75907516479492" cy="-165.39579010009766" fill="#802971" r="5"/>
<circle cx="15.814830780029297" cy="-4.745128631591797" fill="#802971" r="5"/>
<circle cx="82.08682250976563" cy="-55.48654794692993" fill="#802971" r="5"/>
<circle cx="104.52169418334961" cy="-203.88635063171387" fill="#802971" r="5"/>
<circle cx="18.681964874267578" cy="-6.152856826782227" fill="#802971" r="5"/>
<circle cx="94.24564361572266" cy="-119.37877178192139" fill="#802971" r="5"/>
</g>
</g>
<g>
<g>
<circle cx="396.7484436035156" cy="-330.02502250671387" fill="#812614" r="5"/>
<circle cx="385.7137756347656" cy="-298.3241443634033" fill="#812614" r="5"/>
<circle cx="420.1270751953125" cy="-280.58813095092773" fill="#812614" r="5"/>
<circle cx="433.59690856933594" cy="-313.6549415588379" fill="#812614" r="5"/>
<circle cx="472.8919372558594" cy="-285.3706455230713" fill="#812614" r="5"/>
<circle cx="421.37750244140625" cy="-292.57082748413086" fill="#812614" r="5"/>
<circle cx="403.0967559814453" cy="-332.99063873291016" fill="#812614" r="5"/>
<circle cx="422.3788146972656" cy="-296.52417182922363" fill="#812614" r="5"/>
<circle cx="453.74061584472656" cy="-302.2771644592285" fill="#812614" r="5"/>
<circle cx="438.8030090332031" cy="-307.88609313964844" fill="#812614" r="5"/>
<circle cx="408.2289733886719" cy="-300.90066146850586" fill="#812614" r="5"/>
<circle cx="452.43035888671875" cy="-300.46918296813965" fill="#812614" r="5"/>
<circle cx="394.35411071777344" cy="-328.5941753387451" fill="#812614" r="5"/>
<circle cx="454.4861297607422" cy="-330.15037727355957" fill="#812614" r="5"/>
<circle cx="416.6953582763672" cy="-308.45729064941406" fill="#812614" r="5"/>
<circle cx="407.48236083984375" cy="-273.71936416625977" fill="#812614" r="5"/>
<circle cx="431.86395263671875" cy="-293.54156494140625" fill="#812614" r="5"/>
<circle cx="441.6420593261719" cy="-280.87625885009766" fill="#812614" r="5"/>
<circle cx="419.4712371826172" cy="-284.79377365112305" fill="#812614" r="5"/>
<circle cx="397.0853576660156" cy="-336.99677085876465" fill="#812614" r="5"/>
<circle cx="421.4747314453125" cy="-318.0468330383301" fill="#812614" r="5"/>
<circle cx="431.6307678222656" cy="-332.1114692687988" fill="#812614" r="5"/>
<circle cx="406.92787170410156" cy="-285.1843967437744" fill="#812614" r="5"/>
<circle cx="393.4830780029297" cy="-332.3269329071045" fill="#812614" r="5"/>
<circle cx="453.20054626464844" cy="-278.22532653808594" fill="#812614" r="5"/>
<circle cx="415.3414764404297" cy="-293.68391036987305" fill="#812614" r="5"/>
<circle cx="417.1984405517578" cy="-328.5976448059082" fill="#812614" r="5"/>
<circle cx="420.8386688232422" cy="-316.05749893188477" fill="#812614" r="5"/>
<circle cx="366.3360900878906" cy="-319.4959030151367" fill="#812614" r="5"/>
<circle cx="461.95037841796875" cy="-277.2102966308594" fill="#812614" r="5"/>
<circle cx="465.7298126220703" cy="-339.9306106567383" fill="#812614" r="5"/>
<circle cx="402.60296630859375" cy="-323.6772918701172" fill="#812614" r="5"/>
<circle cx="422.90126037597656" cy="-332.6895408630371" fill="#812614" r="5"/>
<circle cx="470.6374969482422" cy="-321.59703826904297" fill="#812614" r="5"/>
<circle cx="393.5587463378906" cy="-284.6853446960449" fill="#812614" r="5"/>
<circle cx="412.9977722167969" cy="-338.84923934936523" fill="#812614" r="5"/>
<circle cx="415.5689392089844" cy="-295.4593048095703" fill="#812614" r="5"/>
<circle cx="458.5660400390625" cy="-299.6598892211914" fill="#812614" r="5"/>
<circle cx="392.4667510986328" cy="-315.0780715942383" fill="#812614" r="5"/>
<circle cx="446.01292419433594" cy="-339.09424209594727" fill="#812614" r="5"/>
<circle cx="399.9361267089844" cy="-318.84117889404297" fill="#812614" r="5"/>
<circle cx="460.3909149169922" cy="-338.9791011810303" fill="#812614" r="5"/>
<circle cx="455.80645751953125" cy="-310.8984661102295" fill="#812614" r="5"/>
<circle cx="456.62310791015625" cy="-297.7105350494385" fill="#812614" r="5"/>
<circle cx="430.9384002685547" cy="-313.8751392364502" fill="#812614" r="5"/>
<circle cx="397.24717712402344" cy="-294.5172634124756" fill="#812614" r="5"/>
<circle cx="427.55076599121094" cy="-309.6412544250488" fill="#812614" r="5"/>
<circle cx="443.8825378417969" cy="-272.9662628173828" fill="#812614" r="5"/>
<circle cx="438.7154846191406" cy="-328.5043258666992" fill="#812614" r="5"/>
<circle cx="430.1979675292969" cy="-299.3420600891113" fill="#812614" r="5"/>
<circle cx="412.7376708984375" cy="-329.8092670440674" fill="#812614" r="5"/>
<circle cx="472.5724639892578" cy="-339.9257469177246" fill="#812614" r="5"/>
<circle cx="403.3385925292969" cy="-277.9969902038574" fill="#812614" r="5"/>
<circle cx="384.68861389160156" cy="-323.8698310852051" fill="#812614" r="5"/>
<circle cx="406.6044616699219" cy="-294.98450660705566" fill="#812614" r="5"/>
<circle cx="436.20721435546875" cy="-338.6001510620117" fill="#812614" r="5"/>
<circle cx="445.37571716308594" cy="-292.02038192749023" fill="#812614" r="5"/>
</g>
</g>
<g>
<g>
<circle cx="69.90217208862305" cy="-303.74260902404785" fill="#914002" r="5"/>
<circle cx="3.6354446411132813" cy="-290.09982109069824" fill="#914002" r="5"/>
<circle cx="59.315528869628906" cy="-330.8028316497803" fill="#914002" r="5"/>
<circle cx="72.198486328125" cy="-298.10975074768066" fill="#914002" r="5"/>
<circle cx="55.20315170288086" cy="-325.2085266113281" fill="#914002" r="5"/>
</g>
</g>
<g>
<g>
<circle cx="176.4480972290039" cy="-332.56678009033203" fill="#145107" r="5"/>
</g>
</g>
<g>
<g>
<line stroke="black" stroke-width="1" x1="0" x2="0" y1="0" y2="10"/>
<line stroke="black" stroke-width="1" x1="96" x2="96" y1="0" y2="10"/>
<line stroke="black" stroke-width="1" x1="192" x2="192" y1="0" y2="10"/>
<line stroke="black" stroke-width="1" x1="288" x2="288" y1="0" y2="10"/>
<line stroke="black" stroke-width="1" x1="384" x2="384" y1="0" y2="10"/>
<line stroke="black" stroke-width="1" x1="480" x2="480" y1="0" y2="10"/>
</g>
<line stroke="black" stroke-width="1" x1="0" x2="480" y1="0" y2="0"/>
<g>
<text font-size="12" text-anchor="middle" x="0" y="20">
0
</text>
<text font-size="12" text-anchor="middle" x="96" y="20">
1
</text>
<text font-size="12" text-anchor="middle" x="192" y="20">
2
</text>
<text font-size="12" text-anchor="middle" x="288" y="20">
3
</text>
<text font-size="12" text-anchor="middle" x="384" y="20">
4
</text>
<text font-size="12" text-anchor="middle" x="480" y="20">
5
</text>
</g>
<text font-size="12" text-anchor="middle" x="240" y="30">
x-axis
</text>
</g>
<g>
<g>
<line stroke="black" stroke-width="1" x1="0" x2="-10" y1="0" y2="0"/>
<line stroke="black" stroke-width="1" x1="0" x2="-10" y1="-68" y2="-68"/>
<line stroke="black" stroke-width="1" x1="0" x2="-10" y1="-136" y2="-136"/>
<line stroke="black" stroke-width="1" x1="0" x2="-10" y1="-204" y2="-204"/>
<line stroke="black" stroke-width="1" x1="0" x2="-10" y1="-272" y2="-272"/>
<line stroke="black" stroke-width="1" x1="0" x2="-10" y1="-340" y2="-340"/>
</g>
<line stroke="black" stroke-width="1" x1="0" x2="0" y1="0" y2="-340"/>
<g>
<text dominant-baseline="middle" font-size="12" text-anchor="end" x="-15" y="0">
0
</text>
<text dominant-baseline="middle" font-size="12" text-anchor="end" x="-15" y="-68">
1
</text>
<text dominant-baseline="middle" font-size="12" text-anchor="end" x="-15" y="-136">
2
</text>
<text dominant-baseline="middle" font-size="12" text-anchor="end" x="-15" y="-204">
3
</text>
<text dominant-baseline="middle" font-size="12" text-anchor="end" x="-15" y="-272">
4
</text>
<text dominant-baseline="middle" font-size="12" text-anchor="end" x="-15" y="-340">
5
</text>
</g>
<text font-size="12" text-anchor="middle" transform="rotate(-90 -12 -170)" x="-12" y="-182">
y-axis
</text>
</g>
</g>
</svg>